<svg width="16" height="18" viewBox="0 0 16 18" fill="none" xmlns="http://www.w3.org/2000/svg">
<path d="M10.2217 0.751521H14.897C15.1533 0.751521 15.2754 0.87359 15.2754 1.12994V17.6461C15.2754 17.878 15.1533 18.0001 14.897 18.0001H10.2217C10.0264 18.0001 9.87988 17.8292 9.87988 17.6461V12.0553H6.37646V17.6461C6.37646 17.878 6.25439 18.0001 5.99805 18.0001H1.32275C1.16406 18.0001 0.980957 17.8292 0.980957 17.6461V1.12994C0.980957 0.934625 1.16406 0.739314 1.32275 0.751521H5.99805C6.25439 0.751521 6.37646 0.87359 6.37646 1.12994V7.6485H9.87988V1.12994C9.86768 0.87359 9.98975 0.751521 10.2217 0.751521Z" fill="#FBC91B"/>
</svg>
